<svg width="126" height="24" viewBox="0 0 126 24" fill="none" xmlns="http://www.w3.org/2000/svg">
<g clip-path="url(#clip0_72_7906)">
<path d="M19.2284 1.23145C18.9392 1.23145 18.5055 1.30354 18.2164 1.30354C17.4212 1.44774 16.3369 1.88033 15.4695 2.45712C14.9635 2.81761 14.6021 3.106 14.1684 3.53859C13.6624 4.04328 13.3732 4.40377 13.0841 4.98056L13.0118 5.19685L12.8672 5.12475C11.7107 4.62007 10.1927 4.40377 8.96382 4.76426C8.0964 4.98056 7.0844 5.55734 6.28926 6.20623C6.21697 6.27833 6.14469 6.35043 6.0724 6.35043C6.00012 6.42252 5.63869 6.78302 5.49412 6.99931C5.27726 7.21561 5.06041 7.5761 4.91584 7.86449C4.55441 8.51337 4.26527 9.52275 4.26527 10.1716V10.3158L3.83155 10.5321C3.18098 10.8926 2.67499 11.181 2.0967 11.7578C1.5907 12.2625 1.30156 12.6951 1.01242 13.1998C0.434136 14.3533 0.217279 15.6511 0.506421 16.8047C0.723278 17.9583 1.22928 18.8955 2.0967 19.7607C2.96413 20.698 3.68698 21.0585 4.84355 21.419C5.42183 21.5632 6.0724 21.6353 7.80725 21.6353C8.0964 21.6353 8.53011 21.6353 8.81925 21.6353C10.8432 21.7074 23.4209 21.7074 24.5052 21.6353C25.8786 21.5632 26.5292 21.5632 27.1075 21.419C27.6858 21.3469 28.0472 21.2027 28.6255 20.9143C29.4206 20.5538 29.8543 20.2654 30.4326 19.6886C31.0109 19.1118 31.3723 18.535 31.6615 17.742C32.0229 16.8047 32.1675 15.579 32.0229 14.6417C31.8783 13.8487 31.5169 12.9114 31.0109 12.2625C30.7217 11.902 30.288 11.3973 29.9266 11.1089C29.2038 10.46 28.4809 10.0995 27.6135 9.88324C27.3966 9.81114 27.3966 9.81114 27.3966 9.81114C27.3966 9.81114 27.3966 9.66695 27.4689 9.45065C27.5412 9.16226 27.5412 9.09016 27.5412 8.58547C27.5412 8.00869 27.5412 7.79239 27.3966 7.2877C27.1075 6.27833 26.6015 5.12475 25.8063 4.11538C25.3003 3.46649 24.5775 2.81761 23.8546 2.38502C23.0595 1.88033 21.7583 1.37564 21.1078 1.30354C20.6741 1.23145 19.9512 1.23145 19.2284 1.23145ZM20.8909 2.16872C21.2524 2.24082 21.6138 2.31292 22.1198 2.52921C22.6981 2.74551 23.2041 3.0339 23.5655 3.2502C25.0112 4.25957 26.1678 5.98993 26.4569 7.79239C26.5292 8.36918 26.5292 8.87387 26.4569 9.59485C26.4569 9.81114 26.3846 10.0995 26.3846 10.1716C26.3846 10.3879 26.3846 10.3879 26.3846 10.46C26.3846 10.5321 26.4569 10.6042 26.5292 10.6042C26.6015 10.6763 26.6738 10.6763 27.1075 10.8205C27.6135 10.9647 27.8303 11.0368 28.1918 11.181C28.9869 11.6136 29.782 12.2625 30.288 13.0556C30.6495 13.6324 30.9386 14.3533 31.0832 15.0743C31.0832 15.2185 31.0832 15.3627 31.0832 15.6511C31.0832 17.021 30.5772 18.3187 29.7097 19.1839C29.2038 19.6886 28.6978 19.977 27.9026 20.3375C27.1075 20.698 26.3123 20.7701 23.7823 20.8422C22.8426 20.8422 13.5178 20.8422 12.5781 20.8422C12.3612 20.8422 11.4938 20.8422 10.5541 20.8422C8.16868 20.8422 6.72297 20.7701 6.00012 20.7701C5.63869 20.7701 5.34955 20.698 5.06041 20.6259C4.04841 20.3375 3.54241 20.0491 2.74727 19.256C2.0967 18.6071 1.5907 17.742 1.44613 16.8768C1.22928 15.7953 1.37385 14.7138 1.87985 13.7045C2.16899 13.1277 2.74727 12.4788 3.39784 11.9741C3.68698 11.7578 3.90384 11.6136 4.26527 11.4694C4.77126 11.181 4.98812 11.1089 5.06041 10.8205C5.13269 10.6763 5.13269 10.5321 5.13269 10.3879C5.13269 10.0995 5.27726 9.45065 5.49412 8.87387C5.63869 8.58547 5.78326 8.15288 5.92783 7.93659C6.43383 7.21561 7.22897 6.56672 8.0964 6.13413C8.81925 5.77364 9.46982 5.62944 10.4095 5.62944C10.771 5.62944 11.0601 5.62944 11.3492 5.70154C11.8552 5.77364 12.1444 5.91784 12.6504 6.13413C13.0841 6.27833 13.1564 6.35043 13.3009 6.27833C13.4455 6.20623 13.5178 6.13413 13.8069 5.70154C14.0961 5.19685 14.1684 5.05266 14.3129 4.83636C15.0358 3.89908 16.1924 2.9618 17.4212 2.52921C17.9995 2.31292 18.3609 2.24082 19.0115 2.16872C19.1561 2.16872 19.3006 2.16872 19.3729 2.16872C19.5175 2.16872 20.7464 2.16872 20.8909 2.16872Z" fill="#172F6F"/>
</g>
<defs>
<clipPath id="clip0_72_7906">
<rect width="126" height="24" fill="white"/>
</clipPath>
</defs>
</svg>
